<?xml version="1.0" encoding="utf-8"?>
<!-- Generator: Adobe Illustrator 16.0.4, SVG Export Plug-In . SVG Version: 6.00 Build 0)  -->
<!DOCTYPE svg PUBLIC "-//W3C//DTD SVG 1.1//EN" "http://www.w3.org/Graphics/SVG/1.1/DTD/svg11.dtd">
<svg version="1.1"
	 id="Layer_1" image-rendering="auto" shape-rendering="auto" text-rendering="auto" color-rendering="auto" color-interpolation="auto"
	 xmlns="http://www.w3.org/2000/svg" xmlns:xlink="http://www.w3.org/1999/xlink" x="0px" y="0px" width="203.148px"
	 height="223.531px" viewBox="76.813 100.808 203.148 223.531" enable-background="new 76.813 100.808 203.148 223.531"
	 xml:space="preserve">
<g>
	<g>
		<path fill="#FCFBF7" d="M275.098,194.97c4.353,7.446,5.784,15.188,4.293,23.227c-1.639,8.342-6.141,14.667-13.506,18.972
			l-142.285,83.176c-7.365,4.306-15,5.131-22.905,2.476s-14.033-7.706-18.386-15.151c-3.69-6.313-5.522-13.441-5.496-21.384
			l0.509-150.156c0.021-14.455,5.332-24.781,15.935-30.979c10.603-6.198,22.207-5.76,34.812,1.314l131.092,73.226
			C266.096,183.563,271.408,188.657,275.098,194.97z M253.883,206.883c-2.838-4.856-9.858-10.363-21.06-16.521l-96.374-53.125
			c-15.259-8.455-25.114-11.381-29.565-8.779c-4.533,2.65-6.858,12.697-6.977,30.141l-0.87,109.971
			c-0.083,12.862,1.272,21.681,4.063,26.456c4.021,6.879,12.426,6.582,25.214-0.894l112.419-65.717
			C253.521,220.94,257.905,213.763,253.883,206.883z"/>
	</g>
</g>
</svg>
