<?xml version="1.0" encoding="utf-8"?>
<!-- Generator: Adobe Illustrator 16.0.4, SVG Export Plug-In . SVG Version: 6.00 Build 0)  -->
<!DOCTYPE svg PUBLIC "-//W3C//DTD SVG 1.1//EN" "http://www.w3.org/Graphics/SVG/1.1/DTD/svg11.dtd">
<svg version="1.1" id="Layer_1" xmlns="http://www.w3.org/2000/svg" xmlns:xlink="http://www.w3.org/1999/xlink" x="0px" y="0px"
	 width="469.824px" height="469.824px" viewBox="0 0 469.824 469.824" enable-background="new 0 0 469.824 469.824"
	 xml:space="preserve">
<g id="Layer_1_1_" display="none">
</g>
<g id="trace_layer">
</g>
<g id="Layer_3">
	<path fill="#F7F6F2" d="M234.912,469.324c25.045,0,49.169-3.936,71.794-11.209l3.697-11.885l10.643,6.746
		c12.697-5.021,24.856-11.112,36.356-18.176v-12.234c0,0,0.009,0.002,12.345,4.112c0.218-0.15,0.438-0.3,0.651-0.453
		c59.861-42.471,98.926-112.329,98.926-191.313C469.324,105.45,364.374,0.5,234.912,0.5S0.5,105.45,0.5,234.912
		C0.5,364.375,105.45,469.324,234.912,469.324z M74.36,120.566l-18.125-14.125l7.5-9.625l18.375,14L74.36,120.566z M222.662,236.295
		c0-6.766,5.484-12.25,12.25-12.25c6.768,0,12.25,5.484,12.25,12.25c0,6.766-5.482,12.25-12.25,12.25
		C228.146,248.545,222.662,243.061,222.662,236.295z M226.435,38.637l-0.23-22.978l12.202-0.122l0.483,23.096L226.435,38.637z
		 M384.297,108.444l17.993-14.289l7.59,9.557l-17.936,14.562L384.297,108.444z M428.177,272.859l22.397,5.127l-2.723,11.896
		l-22.574-4.907L428.177,272.859z M328.485,409.184l10.196,20.595l-10.938,5.414l-10.476-20.592L328.485,409.184z M44.75,286.898
		l-22.387,5.184l-2.752-11.887l22.447-5.457L44.75,286.898z M155.063,416.32l-10.023,20.679l-10.979-5.322l9.848-20.896
		L155.063,416.32z M434.541,255.62c-0.134,6.624-5.611,11.889-12.237,11.755l-38.66-0.777c-6.625-0.133-11.889-5.613-11.755-12.24
		l0.63-31.323c0.135-6.626,5.613-11.889,12.24-11.756l38.656,0.777c6.627,0.134,11.891,5.613,11.758,12.239L434.541,255.62z
		 M373.175,91.381c5.165,4.151,5.985,11.705,1.835,16.87l-24.226,30.14c-4.15,5.165-11.706,5.986-16.871,1.835l-24.424-19.63
		c-5.165-4.151-5.986-11.705-1.835-16.87l24.227-30.14c4.15-5.164,11.702-5.987,16.871-1.835L373.175,91.381z M295.714,45.09
		c6.448,1.527,10.441,7.991,8.917,14.44l-8.896,37.63c-1.523,6.449-7.988,10.44-14.438,8.917l-30.49-7.209
		c-6.449-1.524-10.442-7.99-8.917-14.439l8.896-37.629c1.524-6.448,7.988-10.441,14.438-8.917L295.714,45.09z M423.986,167.894
		c2.8,6.004,0.2,13.144-5.806,15.944l-35.047,16.337c-6.006,2.802-13.146,0.203-15.945-5.806l-13.24-28.397
		c-2.799-6.006-0.2-13.147,5.809-15.944l35.045-16.34c6.008-2.801,13.146-0.202,15.944,5.807L423.986,167.894z M209.921,37.296
		c6.491-1.324,12.83,2.865,14.155,9.358l7.733,37.887c1.322,6.492-2.865,12.831-9.36,14.157l-30.698,6.265
		c-6.494,1.324-12.832-2.864-14.155-9.358l-7.733-37.887c-1.324-6.493,2.866-12.831,9.359-14.156L209.921,37.296z M63.17,133.238
		c2.915-5.951,10.104-8.412,16.058-5.495l34.724,17.013c5.95,2.916,8.411,10.104,5.495,16.056l-13.785,28.139
		c-2.916,5.951-10.104,8.411-16.056,5.495l-34.727-17.013c-5.948-2.917-8.411-10.104-5.495-16.057L63.17,133.238z M35.022,218.974
		c0.073-6.627,5.502-11.942,12.129-11.872l38.665,0.416c6.627,0.07,11.938,5.5,11.87,12.126l-0.335,31.331
		c-0.071,6.627-5.503,11.942-12.129,11.871l-38.664-0.414c-6.626-0.07-11.94-5.5-11.87-12.127L35.022,218.974z M126.654,66.86
		c5.242-4.05,12.778-3.082,16.829,2.163l23.637,30.603c4.052,5.243,3.085,12.779-2.162,16.831l-24.797,19.153
		c-5.244,4.051-12.782,3.083-16.83-2.163l-23.638-30.601c-4.052-5.245-3.085-12.78,2.163-16.831L126.654,66.86z M47.846,307.202
		c-2.813-5.999-0.23-13.146,5.77-15.959l35.008-16.421c5.999-2.813,13.146-0.23,15.96,5.771l13.307,28.366
		c2.812,6,0.23,13.145-5.771,15.96L77.11,341.34c-6,2.812-13.146,0.23-15.959-5.77L47.846,307.202z M174.591,427.293
		c-6.469-1.436-10.551-7.845-9.111-14.314l8.375-37.75c1.435-6.47,7.844-10.551,14.312-9.113l30.59,6.785
		c6.472,1.437,10.553,7.846,9.114,14.313l-8.374,37.75c-1.438,6.469-7.845,10.551-14.314,9.115L174.591,427.293z M264.541,434.501
		c-6.459,1.486-12.899-2.541-14.391-8.999l-8.685-37.68c-1.487-6.458,2.539-12.898,8.996-14.389l30.532-7.037
		c6.458-1.488,12.901,2.541,14.391,8.998l8.686,37.68c1.489,6.456-2.54,12.896-8.997,14.388L264.541,434.501z M96.151,381.188
		c-5.168-4.145-5.998-11.694-1.854-16.867l24.19-30.166c4.145-5.17,11.696-6.002,16.867-1.854l24.443,19.6
		c5.172,4.146,6.002,11.701,1.854,16.869l-24.188,30.166c-4.146,5.173-11.695,6.005-16.867,1.854L96.151,381.188z M345.802,403.111
		c-5.226,4.078-12.767,3.147-16.845-2.076l-23.795-30.479c-4.078-5.225-3.148-12.766,2.074-16.845l24.698-19.282
		c5.224-4.076,12.765-3.147,16.843,2.075l23.795,30.479c4.076,5.225,3.15,12.766-2.074,16.844L345.802,403.111z M406.591,339.301
		c-2.962,5.93-10.168,8.338-16.101,5.377l-34.594-17.273c-5.93-2.961-8.335-10.164-5.377-16.094l13.996-28.035
		c2.961-5.928,10.169-8.336,16.098-5.375l34.595,17.271c5.931,2.959,8.337,10.166,5.378,16.096L406.591,339.301z"/>
</g>
</svg>
